<?xml version="1.0" encoding="UTF-8" standalone="no"?>
<svg
   xmlns:dc="http://purl.org/dc/elements/1.1/"
   xmlns:cc="http://creativecommons.org/ns#"
   xmlns:rdf="http://www.w3.org/1999/02/22-rdf-syntax-ns#"
   xmlns:svg="http://www.w3.org/2000/svg"
   xmlns="http://www.w3.org/2000/svg"
   xmlns:sodipodi="http://sodipodi.sourceforge.net/DTD/sodipodi-0.dtd"
   xmlns:inkscape="http://www.inkscape.org/namespaces/inkscape"
   width="64"
   height="64"
   viewBox="0 0 16.933333 16.933334"
   version="1.1"
   id="svg8"
   inkscape:version="1.0.1 (3bc2e813f5, 2020-09-07)"
   sodipodi:docname="ico.svg">
  <defs
     id="defs2" />
  <sodipodi:namedview
     id="base"
     pagecolor="#ffffff"
     bordercolor="#666666"
     borderopacity="1.0"
     inkscape:pageopacity="0.0"
     inkscape:pageshadow="2"
     inkscape:zoom="7.9195959"
     inkscape:cx="32.38735"
     inkscape:cy="26.213526"
     inkscape:document-units="mm"
     inkscape:current-layer="layer1"
     inkscape:document-rotation="0"
     showgrid="false"
     units="px"
     inkscape:window-width="1667"
     inkscape:window-height="910"
     inkscape:window-x="-4"
     inkscape:window-y="0"
     inkscape:window-maximized="0" />
  <metadata
     id="metadata5">
    <rdf:RDF>
      <cc:Work
         rdf:about="">
        <dc:format>image/svg+xml</dc:format>
        <dc:type
           rdf:resource="http://purl.org/dc/dcmitype/StillImage" />
        <dc:title></dc:title>
      </cc:Work>
    </rdf:RDF>
  </metadata>
  <g
     inkscape:label="Layer 1"
     inkscape:groupmode="layer"
     id="layer1">
    <path
       sodipodi:type="star"
       style="opacity:1;fill:#000000;fill-opacity:1;stroke-width:0.264583"
       id="path833"
       sodipodi:sides="10"
       sodipodi:cx="8.8766394"
       sodipodi:cy="3.9642951"
       sodipodi:r1="4.9457045"
       sodipodi:r2="2.4728525"
       sodipodi:arg1="0.89454945"
       sodipodi:arg2="1.2087087"
       inkscape:flatsided="false"
       inkscape:rounded="0"
       inkscape:randomized="0"
       d="M 11.972009,7.8215845 9.7525911,6.2768063 9.1135881,8.9043202 8.2260393,6.3500275 6.164661,8.1001343 6.9479946,5.51198 4.2516175,5.7161985 6.4066266,4.0827695 4.1051751,2.663095 6.8087195,2.6083059 5.78127,0.10700584 8.0006876,1.651784 8.6396907,-0.97572994 9.5272394,1.5785628 11.588618,-0.17154405 10.805284,2.4166103 l 2.696377,-0.2042185 -2.155009,1.633429 2.301452,1.4196745 -2.703545,0.054789 z"
       inkscape:transform-center-x="0.17893645"
       inkscape:transform-center-y="-0.36745334"
       transform="rotate(-15.64393,10.149376,15.678237)" />
    <path
       sodipodi:type="star"
       style="opacity:1;fill:#000000;fill-opacity:1;stroke-width:0.264583"
       id="path833-5"
       sodipodi:sides="10"
       sodipodi:cx="5.3395777"
       sodipodi:cy="11.881902"
       sodipodi:r1="4.9457045"
       sodipodi:r2="2.4728525"
       sodipodi:arg1="0.89454945"
       sodipodi:arg2="1.2087087"
       inkscape:flatsided="false"
       inkscape:rounded="0"
       inkscape:randomized="0"
       d="M 8.4349471,15.739191 6.2155294,14.194413 5.5765264,16.821927 4.6889776,14.267634 2.6275993,16.017741 3.4109329,13.429587 0.71455579,13.633805 2.8695649,12.000376 0.56811345,10.580702 3.2716579,10.525912 2.2442083,8.0246124 4.4636259,9.5693906 5.102629,6.9418766 5.9901778,9.4961694 8.0515561,7.7460625 7.2682225,10.334217 l 2.6963771,-0.204219 -2.1550091,1.633429 2.3014515,1.419675 -2.7035445,0.05479 z"
       inkscape:transform-center-x="0.0086354609"
       inkscape:transform-center-y="-0.40861429"
       transform="rotate(9.1097852,5.0818279,8.2894379)" />
    <path
       sodipodi:type="star"
       style="opacity:1;fill:#000000;fill-opacity:1;stroke-width:0.264583"
       id="path833-9"
       sodipodi:sides="10"
       sodipodi:cx="8.8766394"
       sodipodi:cy="3.9642951"
       sodipodi:r1="4.9457045"
       sodipodi:r2="2.4728525"
       sodipodi:arg1="0.89454945"
       sodipodi:arg2="1.2087087"
       inkscape:flatsided="false"
       inkscape:rounded="0"
       inkscape:randomized="0"
       d="M 11.972009,7.8215845 9.7525911,6.2768063 9.1135881,8.9043202 8.2260393,6.3500275 6.164661,8.1001343 6.9479946,5.51198 4.2516175,5.7161985 6.4066266,4.0827695 4.1051751,2.663095 6.8087195,2.6083059 5.78127,0.10700584 8.0006876,1.651784 8.6396907,-0.97572994 9.5272394,1.5785628 11.588618,-0.17154405 10.805284,2.4166103 l 2.696377,-0.2042185 -2.155009,1.633429 2.301452,1.4196745 -2.703545,0.054789 z"
       inkscape:transform-center-x="0.17893645"
       inkscape:transform-center-y="-0.36745334"
       transform="rotate(-15.64393,30.361428,-5.6715519)" />
    <circle
       style="opacity:1;fill:#000000;fill-opacity:1;stroke-width:0.264583"
       id="path871"
       cx="8.6040936"
       cy="8.0633116"
       r="5.0082722" />
    <path
       sodipodi:type="star"
       style="opacity:1;fill:#606060;fill-opacity:1;stroke-width:0.264583"
       id="path833-53"
       sodipodi:sides="10"
       sodipodi:cx="8.8766394"
       sodipodi:cy="3.9642951"
       sodipodi:r1="4.9457045"
       sodipodi:r2="2.4728525"
       sodipodi:arg1="0.89454945"
       sodipodi:arg2="1.2087087"
       inkscape:flatsided="false"
       inkscape:rounded="0"
       inkscape:randomized="0"
       d="M 11.972009,7.8215845 9.7525911,6.2768063 9.1135881,8.9043202 8.2260393,6.3500275 6.164661,8.1001343 6.9479946,5.51198 4.2516175,5.7161985 6.4066266,4.0827695 4.1051751,2.663095 6.8087195,2.6083059 5.78127,0.10700584 8.0006876,1.651784 8.6396907,-0.97572994 9.5272394,1.5785628 11.588618,-0.17154405 10.805284,2.4166103 l 2.696377,-0.2042185 -2.155009,1.633429 2.301452,1.4196745 -2.703545,0.054789 z"
       inkscape:transform-center-x="0.17893645"
       inkscape:transform-center-y="-0.36745334"
       transform="rotate(-15.64393,24.048749,7.6038112)" />
    <circle
       style="opacity:1;fill:#000000;fill-opacity:1;stroke-width:0.264583"
       id="path890"
       cx="11.433167"
       cy="1.4657309"
       r="0.98291981" />
    <circle
       style="opacity:1;fill:#000000;fill-opacity:1;stroke-width:0.264583"
       id="path890-8"
       cx="15.70117"
       cy="4.3366871"
       r="0.63210511" />
    <circle
       style="opacity:1;fill:#000000;fill-opacity:1;stroke-width:0.264583"
       id="path890-83"
       cx="9.2742233"
       cy="15.572405"
       r="0.98291981" />
    <circle
       style="opacity:1;fill:#000000;fill-opacity:1;stroke-width:0.264583"
       id="path890-1"
       cx="15.386592"
       cy="15.173152"
       r="0.98291981" />
    <circle
       style="opacity:1;fill:#000000;fill-opacity:1;stroke-width:0.264583"
       id="path890-89"
       cx="0.67616475"
       cy="6.0038147"
       r="0.43637145" />
    <circle
       style="opacity:1;fill:#000000;fill-opacity:1;stroke-width:0.264583"
       id="path890-6"
       cx="1.1272379"
       cy="1.2635214"
       r="0.49088639" />
    <circle
       style="opacity:1;fill:#000000;fill-opacity:1;stroke-width:0.264583"
       id="path890-4"
       cx="12.361656"
       cy="15.023439"
       r="0.43882245" />
  </g>
</svg>
